<?xml version="1.0" standalone="no"?>
<!DOCTYPE svg PUBLIC "-//W3C//DTD SVG 20010904//EN"
 "http://www.w3.org/TR/2001/REC-SVG-20010904/DTD/svg10.dtd">
<svg version="1.0" xmlns="http://www.w3.org/2000/svg"
 width="600.000000pt" height="600.000000pt" viewBox="0 0 600.000000 600.000000"
 preserveAspectRatio="xMidYMid meet">
<metadata>
Created by potrace 1.11, written by Peter Selinger 2001-2013
</metadata>
<g transform="translate(0.000000,600.000000) scale(0.100000,-0.100000)"
fill="#000000" stroke="none">
<path d="M2798 5995 c-1 -1 -37 -5 -78 -9 -41 -3 -86 -8 -100 -10 -14 -3 -43
-7 -65 -10 -79 -11 -111 -18 -220 -42 -60 -14 -119 -27 -129 -29 -81 -18 -348
-118 -481 -180 -111 -52 -298 -155 -303 -167 -2 -4 -10 -8 -18 -8 -8 0 -14 -4
-14 -10 0 -5 -5 -10 -10 -10 -6 0 -34 -16 -63 -36 -68 -48 -191 -137 -197
-144 -3 -3 -36 -32 -75 -65 -115 -98 -300 -289 -375 -385 -19 -25 -39 -50 -45
-57 -20 -24 -30 -39 -74 -103 -25 -36 -48 -67 -51 -70 -4 -3 -22 -31 -41 -63
-19 -32 -46 -79 -62 -105 -15 -26 -32 -59 -38 -74 -6 -16 -14 -28 -18 -28 -4
0 -14 -18 -21 -40 -7 -22 -17 -40 -22 -40 -4 0 -8 -7 -8 -16 0 -9 -9 -31 -19
-48 -11 -17 -20 -35 -21 -41 -3 -14 -19 -54 -35 -90 -12 -27 -52 -134 -59
-160 -2 -5 -6 -17 -9 -25 -10 -26 -56 -192 -68 -245 -31 -141 -51 -265 -67
-405 -14 -135 -4 -642 13 -671 2 -3 6 -25 9 -50 9 -66 33 -200 42 -231 3 -9 7
-26 9 -38 2 -12 6 -29 9 -38 13 -48 49 -169 54 -182 3 -8 6 -17 6 -20 2 -9 37
-102 58 -155 11 -27 25 -63 31 -80 21 -53 142 -288 185 -359 23 -37 42 -72 42
-77 0 -5 4 -9 8 -9 5 0 15 -12 23 -27 8 -16 17 -30 20 -33 3 -3 20 -26 37 -52
18 -25 39 -54 48 -62 8 -9 12 -16 7 -16 -4 0 -3 -4 2 -8 6 -4 38 -41 72 -83
97 -120 306 -327 413 -409 25 -19 53 -44 62 -54 10 -10 18 -16 18 -12 0 4 7 0
16 -8 8 -9 37 -30 62 -48 26 -17 49 -34 52 -37 3 -3 17 -12 33 -20 15 -8 27
-18 27 -23 0 -4 5 -8 11 -8 6 0 23 -9 39 -20 69 -49 333 -182 465 -234 39 -16
78 -32 87 -37 10 -5 26 -9 36 -9 10 0 22 -4 28 -9 24 -22 366 -106 513 -127
25 -3 57 -8 71 -10 169 -26 632 -26 771 1 13 3 41 7 64 10 22 3 51 8 65 10 14
3 39 7 55 10 17 2 68 14 115 26 47 11 94 23 105 25 11 2 54 15 95 29 41 15 82
28 90 30 28 6 220 85 312 128 217 102 523 301 666 435 17 16 32 28 32 25 0 -9
270 269 298 306 15 20 35 44 46 53 10 10 15 18 10 18 -5 0 2 7 14 16 12 8 22
22 22 30 0 8 3 14 8 14 4 0 18 17 32 38 14 20 27 39 31 42 13 12 69 100 69
109 0 6 5 11 10 11 6 0 10 6 10 14 0 8 3 16 8 18 9 4 89 141 97 168 4 11 11
20 16 20 5 0 9 5 9 10 0 6 23 58 50 115 28 57 50 107 50 109 0 3 5 17 12 33 6
15 12 30 13 33 1 3 5 12 8 20 47 114 139 445 151 545 3 22 7 51 10 65 5 30 14
92 24 180 14 133 7 552 -13 660 -2 14 -6 43 -9 65 -7 55 -22 140 -36 200 -6
28 -13 57 -15 65 -21 91 -84 290 -132 410 -52 134 -190 404 -230 451 -7 9 -10
19 -6 22 3 4 2 7 -4 7 -5 0 -18 16 -29 35 -10 19 -22 35 -26 35 -5 0 -8 5 -8
11 0 12 -129 188 -161 220 -11 11 -17 19 -15 19 9 0 -72 87 -191 206 -111 110
-280 256 -351 301 -15 10 -36 26 -46 35 -11 10 -25 18 -32 18 -7 0 -14 3 -16
8 -6 14 -95 71 -102 65 -3 -3 -6 -2 -6 4 0 5 -21 21 -47 34 -27 13 -50 26 -53
30 -6 7 -299 150 -314 154 -6 1 -23 7 -37 13 -54 22 -205 74 -228 78 -14 3
-28 7 -33 10 -29 18 -291 74 -438 94 -41 6 -88 13 -105 16 -33 6 -501 14 -507
9z"/>
</g>
</svg>
